<svg xmlns="http://www.w3.org/2000/svg" fill="none" viewBox="0 0 150 41" height="41" width="150">

<path fill="#1F2A2A" d="M150 0H78.2787V40.9836H150V0ZM102.941 21.7602C102.385 21.0389 101.648 20.5806 100.732 20.3852C101.543 20.1448 102.189 19.7165 102.67 19.1004C103.166 18.4843 103.414 17.7104 103.414 16.7787C103.414 15.5164 102.956 14.5171 102.039 13.7807C101.137 13.0444 99.8825 12.6762 98.2746 12.6762H91.1516V28.5H98.5225C100.176 28.5 101.46 28.1168 102.377 27.3504C103.309 26.569 103.775 25.5171 103.775 24.1947C103.775 23.278 103.497 22.4665 102.941 21.7602ZM97.5307 19.0779H95.0061V15.7643H97.5307C98.1619 15.7643 98.6428 15.9071 98.9734 16.1926C99.319 16.4781 99.4918 16.8914 99.4918 17.4324C99.4918 17.9734 99.319 18.3866 98.9734 18.6721C98.6428 18.9426 98.1619 19.0779 97.5307 19.0779ZM99.334 24.9611C98.9884 25.2466 98.4925 25.3893 97.8463 25.3893H95.0061V21.8955H97.8012C98.4474 21.8955 98.9508 22.0533 99.3115 22.3689C99.6872 22.6844 99.875 23.1202 99.875 23.6762C99.875 24.2322 99.6947 24.6605 99.334 24.9611ZM109.008 28.5L109.955 25.7049H115.861L116.807 28.5H120.887L115.162 12.6762H110.699L104.973 28.5H109.008ZM112.908 16.9365L114.869 22.7295H110.969L112.908 16.9365ZM131.894 16.4857C132.435 16.7561 132.848 17.1544 133.134 17.6803H137.394C136.973 16.0574 136.109 14.7876 134.802 13.8709C133.51 12.9542 131.917 12.4959 130.023 12.4959C128.46 12.4959 127.07 12.8415 125.853 13.5328C124.636 14.209 123.682 15.1633 122.99 16.3955C122.314 17.6127 121.976 19.0027 121.976 20.5656C121.976 22.1284 122.314 23.5184 122.99 24.7357C123.682 25.9529 124.636 26.9071 125.853 27.5984C127.085 28.2746 128.483 28.6127 130.046 28.6127C131.368 28.6127 132.555 28.3572 133.607 27.8463C134.659 27.3354 135.523 26.6667 136.199 25.8402C136.891 25.0137 137.379 24.1195 137.665 23.1578V19.5738H129.279V22.4139H134.171C133.87 23.3156 133.389 24.0068 132.728 24.4877C132.082 24.9686 131.286 25.209 130.339 25.209C128.956 25.209 127.867 24.8033 127.07 23.9918C126.289 23.1653 125.898 22.0232 125.898 20.5656C125.898 19.1981 126.274 18.1086 127.025 17.2971C127.777 16.4706 128.776 16.0574 130.023 16.0574C130.745 16.0574 131.368 16.2001 131.894 16.4857Z" clip-rule="evenodd" fill-rule="evenodd"></path>
<path fill="#1F2A2A" d="M19.5124 12.6762V23.4508C19.5124 25.1189 19.039 26.4037 18.0923 27.3053C17.1606 28.207 15.8983 28.6578 14.3054 28.6578C12.6374 28.6578 11.2999 28.1844 10.2931 27.2377C9.28626 26.291 8.78284 24.946 8.78284 23.2029H12.6148C12.6148 23.8641 12.7501 24.3675 13.0205 24.7131C13.291 25.0437 13.6818 25.209 14.1927 25.209C14.6585 25.209 15.0192 25.0587 15.2746 24.7582C15.5301 24.4576 15.6578 24.0219 15.6578 23.4508V12.6762H19.5124ZM30.1094 28.6578C28.6217 28.6578 27.2542 28.3122 26.007 27.6209C24.7747 26.9296 23.7904 25.9679 23.0541 24.7357C22.3328 23.4884 21.9721 22.0908 21.9721 20.543C21.9721 18.9952 22.3328 17.6052 23.0541 16.3729C23.7904 15.1407 24.7747 14.179 26.007 13.4877C27.2542 12.7964 28.6217 12.4508 30.1094 12.4508C31.5971 12.4508 32.9571 12.7964 34.1894 13.4877C35.4366 14.179 36.4134 15.1407 37.1197 16.3729C37.841 17.6052 38.2016 18.9952 38.2016 20.543C38.2016 22.0908 37.841 23.4884 37.1197 24.7357C36.3984 25.9679 35.4216 26.9296 34.1894 27.6209C32.9571 28.3122 31.5971 28.6578 30.1094 28.6578ZM30.1094 25.1414C31.3717 25.1414 32.3786 24.7206 33.1299 23.8791C33.8963 23.0376 34.2795 21.9255 34.2795 20.543C34.2795 19.1455 33.8963 18.0335 33.1299 17.207C32.3786 16.3654 31.3717 15.9447 30.1094 15.9447C28.8321 15.9447 27.8103 16.3579 27.0439 17.1844C26.2925 18.0109 25.9168 19.1305 25.9168 20.543C25.9168 21.9406 26.2925 23.0601 27.0439 23.9016C27.8103 24.7281 28.8321 25.1414 30.1094 25.1414ZM47.8296 28.6578C46.3419 28.6578 44.9744 28.3122 43.7272 27.6209C42.4949 26.9296 41.5107 25.9679 40.7743 24.7357C40.053 23.4884 39.6923 22.0908 39.6923 20.543C39.6923 18.9952 40.053 17.6052 40.7743 16.3729C41.5107 15.1407 42.4949 14.179 43.7272 13.4877C44.9744 12.7964 46.3419 12.4508 47.8296 12.4508C49.3173 12.4508 50.6773 12.7964 51.9096 13.4877C53.1568 14.179 54.1336 15.1407 54.8399 16.3729C55.5612 17.6052 55.9219 18.9952 55.9219 20.543C55.9219 22.0908 55.5612 23.4884 54.8399 24.7357C54.1186 25.9679 53.1418 26.9296 51.9096 27.6209C50.6773 28.3122 49.3173 28.6578 47.8296 28.6578ZM47.8296 25.1414C49.0919 25.1414 50.0988 24.7206 50.8501 23.8791C51.6165 23.0376 51.9997 21.9255 51.9997 20.543C51.9997 19.1455 51.6165 18.0335 50.8501 17.207C50.0988 16.3654 49.0919 15.9447 47.8296 15.9447C46.5523 15.9447 45.5305 16.3579 44.7641 17.1844C44.0127 18.0109 43.637 19.1305 43.637 20.543C43.637 21.9406 44.0127 23.0601 44.7641 23.9016C45.5305 24.7281 46.5523 25.1414 47.8296 25.1414ZM69.4494 12.6762V15.7643H65.2568V28.5H61.4023V15.7643H57.2097V12.6762H69.4494Z"></path>
<rect stroke-width="0.819672" stroke="#1F2A2A" height="40.1639" width="77.459" y="0.409836" x="0.409836"></rect>
</svg>
