<svg id="ef05a42d-b2f6-4e76-8c62-2dce4f898be2" data-name="powered logo" xmlns="http://www.w3.org/2000/svg" viewBox="0 0 1260.23 357.75"><path d="M521.18,219.82a61,61,0,0,0,25.13-21.59q9.32-14,9.32-33,0-19.22-9.32-33.11a61.31,61.31,0,0,0-25.13-21.44q-15.82-7.54-35.93-7.54H429.07v207h25.14V227.36h25.2L537,310.15h31L506.35,225A74.34,74.34,0,0,0,521.18,219.82Zm-67-94.48h31a55.2,55.2,0,0,1,23.51,4.74,37.22,37.22,0,0,1,16,13.6q5.76,8.87,5.76,21.58t-5.76,21.59a37.28,37.28,0,0,1-16,13.6,55.35,55.35,0,0,1-23.51,4.73h-31Z" transform="translate(-26.61 -23.13)" fill="#070707"/><path d="M683.21,179.6q-14.34-8.43-34.44-8.42t-35.34,8.87a61.13,61.13,0,0,0-23.65,24.83q-8.43,16-8.43,37.26,0,21,8.13,37a61.37,61.37,0,0,0,22.77,25q14.64,9,33.56,9,21.88,0,38-8.72t26.76-25.87l-19.22-12.12q-7.38,12.41-18,18.48a48.75,48.75,0,0,1-24.54,6.06q-13.9,0-23.66-5.92a37.14,37.14,0,0,1-14.78-17.15,60.1,60.1,0,0,1-4.73-19.81h107c0-.39,0-1.33.15-2.81s.15-2.9.15-4.28q0-21.59-7.69-37.26A55.65,55.65,0,0,0,683.21,179.6Zm-57.65,18q9.6-5.77,23.21-5.77a39.05,39.05,0,0,1,20.1,5,35.77,35.77,0,0,1,13.46,13.9A40.94,40.94,0,0,1,687.06,228H606.5a53.26,53.26,0,0,1,4.27-13.75A37.78,37.78,0,0,1,625.56,197.64Z" transform="translate(-26.61 -23.13)" fill="#070707"/><path d="M835.49,179.6q-14.34-8.43-34.45-8.42t-35.33,8.87a61.09,61.09,0,0,0-23.66,24.83q-8.41,16-8.42,37.26,0,21,8.13,37a61.37,61.37,0,0,0,22.77,25q14.63,9,33.56,9,21.87,0,38-8.72t26.76-25.87l-19.22-12.12q-7.39,12.41-18,18.48A48.7,48.7,0,0,1,801,290.93q-13.89,0-23.65-5.92a37.1,37.1,0,0,1-14.79-17.15,60.35,60.35,0,0,1-4.73-19.81h107c0-.39.05-1.33.15-2.81s.15-2.9.15-4.28q0-21.59-7.69-37.26A55.65,55.65,0,0,0,835.49,179.6Zm-57.66,18q9.61-5.77,23.21-5.77a39.06,39.06,0,0,1,20.11,5,35.74,35.74,0,0,1,13.45,13.9A40.94,40.94,0,0,1,839.34,228H758.78a53.26,53.26,0,0,1,4.27-13.75A37.7,37.7,0,0,1,777.83,197.64Z" transform="translate(-26.61 -23.13)" fill="#070707"/><rect x="871.12" y="56.39" width="23.66" height="230.63" fill="#070707"/><path d="M1081.35,242.14q0,21.28-11.53,34.3t-33.71,13q-22.17,0-33.71-13t-11.53-34.3v-139H965.74v139a80.11,80.11,0,0,0,4.88,28.39A63.26,63.26,0,0,0,984.81,293a66,66,0,0,0,22.32,14.78,81.59,81.59,0,0,0,58,0A66,66,0,0,0,1087.41,293a63.26,63.26,0,0,0,14.19-22.47,80.11,80.11,0,0,0,4.88-28.39v-139h-25.13Z" transform="translate(-26.61 -23.13)" fill="#070707"/><path d="M1277.68,204.14a64.47,64.47,0,0,0-24.39-24.39,67.9,67.9,0,0,0-33.86-8.57q-16.86,0-29.72,8.57a54.69,54.69,0,0,0-16.7,17.94V174.13h-23.66V375.2H1173V286.54a54.28,54.28,0,0,0,16.7,18q12.87,8.57,29.72,8.57a67.9,67.9,0,0,0,33.86-8.57A64.18,64.18,0,0,0,1277.68,280q9.16-16,9.17-37.85Q1286.85,220,1277.68,204.14Zm-21.14,64.61a42.44,42.44,0,0,1-16.86,16.56,48.34,48.34,0,0,1-23.21,5.62,41.34,41.34,0,0,1-20.4-5.62,44.43,44.43,0,0,1-16.56-16.56q-6.51-10.94-6.5-26.61t6.5-26.61A44.57,44.57,0,0,1,1196.07,199a41.45,41.45,0,0,1,20.4-5.62,48.46,48.46,0,0,1,23.21,5.62,42.57,42.57,0,0,1,16.86,16.56q6.35,10.93,6.36,26.61T1256.54,268.75Z" transform="translate(-26.61 -23.13)" fill="#070707"/><path d="M150.08,336.87l-77.94,39.9a30.36,30.36,0,0,1-45.52-26.34l0-29.26a39.55,39.55,0,0,0,8.44.94v16.23a30.36,30.36,0,0,0,45.52,26.35l65.12-32.51Z" transform="translate(-26.61 -23.13)" fill="#fe2d54"/><path d="M158.64,208a11.38,11.38,0,0,1-5.63,8.3L62.62,268.36a11.39,11.39,0,0,1-11.52,0l-.16-.1.06-62,.07-62a.71.71,0,0,0,.14-.1A11.53,11.53,0,0,1,57,142.53h0l0,55.22-.06,62,.16.11a11.41,11.41,0,0,0,11.52,0Z" transform="translate(-26.61 -23.13)" fill="#fe2d54"/><path d="M200.25,224.41a39.8,39.8,0,0,0-16.33-50.52l-64.41-37.26L55.09,99.35a39.08,39.08,0,0,0-28.22-4.47l0-29.31a30,30,0,0,1,10.4-22.85,30.48,30.48,0,0,0-1.94,10.77l0,29.31a39,39,0,0,1,28.22,4.47L128,124.55l64.42,37.26a39.65,39.65,0,0,1,7.87,62.6Z" transform="translate(-26.61 -23.13)" fill="#ff004f"/><path d="M325.18,219.13A29.86,29.86,0,0,1,312,234.59l-110.5,65.17-13,7.5L146,261.79l12.83-7.39,38.07,40.78,13-7.5,110.5-65.17A30.91,30.91,0,0,0,325.18,219.13Z" transform="translate(-26.61 -23.13)" fill="#fe2d54"/><path d="M145.71,332.18,80.59,364.69a30.36,30.36,0,0,1-45.52-26.35V322.11h0a39.45,39.45,0,0,0,19.77-5.35l52.76-25.38Z" transform="translate(-26.61 -23.13)" fill="#070707"/><path d="M158.54,324.79l-12.83,7.39-38.07-40.8L54.88,316.76a39.45,39.45,0,0,1-19.77,5.35h0l0-13a38.87,38.87,0,0,0,28.24-4.41L116.1,279.3Z" transform="translate(-26.61 -23.13)" fill="#6bfcb7"/><path d="M158.77,206.33a10.47,10.47,0,0,1-.13,1.68L68.55,259.9a11.41,11.41,0,0,1-11.52,0l-.16-.11.06-62,0-55.22a11.55,11.55,0,0,1,5.77,1.56L153,196.34A11.41,11.41,0,0,1,158.77,206.33Z" transform="translate(-26.61 -23.13)" fill="#070707"/><path d="M164.69,197.86a11.42,11.42,0,0,1-5.75,10l-.3.17a10.47,10.47,0,0,0,.13-1.68,11.41,11.41,0,0,0-5.74-10L62.75,144.09A11.55,11.55,0,0,0,57,142.53v-6.8l.15-.1a11.39,11.39,0,0,1,5.76-1.56,11.52,11.52,0,0,1,5.78,1.56L159,187.88A11.37,11.37,0,0,1,164.69,197.86Z" transform="translate(-26.61 -23.13)" fill="#6bfcb7"/><path d="M325.18,219.13a30.91,30.91,0,0,1-4.77,3.38l-110.5,65.17-13,7.5L158.8,254.4l25-11.92a39.28,39.28,0,0,0,16.4-18.07,39.65,39.65,0,0,0-7.87-62.6L128,124.55,63.55,87.27A39,39,0,0,0,35.33,82.8l0-29.31a30.48,30.48,0,0,1,1.94-10.77,30.22,30.22,0,0,1,35.17-3.38l123.26,71.33L312,182A30.31,30.31,0,0,1,325.18,219.13Z" transform="translate(-26.61 -23.13)" fill="#070707"/><path d="M200.25,224.41a39.28,39.28,0,0,1-16.4,18.07l-25,11.92-4.37-4.69L192.3,230.4A39.55,39.55,0,0,0,200.25,224.41Z" transform="translate(-26.61 -23.13)" fill="#6bfcb7"/><path d="M325.18,219.13A30.31,30.31,0,0,0,312,182L195.72,110.67,72.46,39.34a30.22,30.22,0,0,0-35.17,3.38A30.4,30.4,0,0,1,80.92,27.26L204.18,98.59l116.27,71.33A30.37,30.37,0,0,1,325.18,219.13Z" transform="translate(-26.61 -23.13)" fill="#6bfcb7"/></svg>